<svg width="16" height="16" xmlns="http://www.w3.org/2000/svg" viewBox="0 0 16 16">
  <defs>
    <linearGradient id="grad1" x1="0%" y1="0%" x2="100%" y2="100%">
      <stop offset="0%" style="stop-color:#4CAF50;stop-opacity:1" />
      <stop offset="100%" style="stop-color:#2196F3;stop-opacity:1" />
    </linearGradient>
  </defs>
  
  <!-- Brain shape -->
  <path d="M8 2c-1.5 0-2.8 0.8-3.5 2 -0.5-0.3-1.1-0.5-1.7-0.5 -1.7 0-3 1.3-3 3 0 0.8 0.3 1.5 0.8 2 -0.5 0.5-0.8 1.2-0.8 2 0 1.7 1.3 3 3 3 0.6 0 1.2-0.2 1.7-0.5 0.7 1.2 2 2 3.5 2s2.8-0.8 3.5-2c0.5 0.3 1.1 0.5 1.7 0.5 1.7 0 3-1.3 3-3 0-0.8-0.3-1.5-0.8-2 0.5-0.5 0.8-1.2 0.8-2 0-1.7-1.3-3-3-3 -0.6 0-1.2 0.2-1.7 0.5C10.8 2.8 9.5 2 8 2z" 
        fill="url(#grad1)" stroke="#333" stroke-width="0.5"/>
  
  <!-- Circuit lines -->
  <line x1="5" y1="6" x2="7" y2="8" stroke="#fff" stroke-width="0.8"/>
  <line x1="9" y1="8" x2="11" y2="6" stroke="#fff" stroke-width="0.8"/>
  <line x1="6" y1="10" x2="10" y2="10" stroke="#fff" stroke-width="0.8"/>
  
  <!-- Dots -->
  <circle cx="5" cy="6" r="0.8" fill="#fff"/>
  <circle cx="11" cy="6" r="0.8" fill="#fff"/>
  <circle cx="8" cy="8" r="0.8" fill="#fff"/>
  <circle cx="6" cy="10" r="0.8" fill="#fff"/>
  <circle cx="10" cy="10" r="0.8" fill="#fff"/>
</svg>